<svg width="68" height="67" viewBox="0 0 68 67" fill="none" xmlns="http://www.w3.org/2000/svg">
<g id="Arrow right">
<path id="Ellipse 5" d="M67.5 33.5C67.5 51.7184 52.5085 66.5 34 66.5C15.4915 66.5 0.5 51.7184 0.5 33.5C0.5 15.2816 15.4915 0.5 34 0.5C52.5085 0.5 67.5 15.2816 67.5 33.5Z" fill="white" stroke="#D6D6D6"/>
<path id="Line 2" d="M42.7071 33.2929C43.0976 33.6834 43.0976 34.3166 42.7071 34.7071L36.3431 41.0711C35.9526 41.4616 35.3195 41.4616 34.9289 41.0711C34.5384 40.6805 34.5384 40.0474 34.9289 39.6569L40.5858 34L34.9289 28.3431C34.5384 27.9526 34.5384 27.3195 34.9289 26.9289C35.3195 26.5384 35.9526 26.5384 36.3431 26.9289L42.7071 33.2929ZM42 35H24V33H42V35Z" fill="#262626"/>
</g>
</svg>
