<svg width="69" height="48" viewBox="0 0 69 48" fill="none" xmlns="http://www.w3.org/2000/svg">
<g id="&#208;&#155;&#208;&#158;&#208;&#147;&#208;&#158; &#208;&#154;&#208;&#158;&#208;&#157;&#208;&#162;&#208;&#163;&#208;&#160;">
<path id="Vector" d="M45.6202 47.1261H0V0H45.6202V16.124H43.5054V2.18467H2.11264V44.9415H43.5054V30.8968H45.6202V47.1261Z" fill="white"/>
<path id="Vector_2" d="M9.32031 18.7236H11.4396V22.896L14.4723 18.7236H17.015L13.5323 23.1433L17.2921 28.3004H14.6053L11.4396 23.7433V28.3004H9.32031V18.7236Z" fill="white"/>
<path id="Vector_3" d="M22.8187 26.326C24.5279 26.326 25.4146 25.0779 25.4146 23.5115C25.4146 21.8123 24.2707 20.6971 22.8187 20.6971C21.3289 20.6971 20.2249 21.8123 20.2249 23.5115C20.2249 25.1031 21.3799 26.326 22.8187 26.326ZM22.8187 18.707C25.5565 18.707 27.6005 20.5505 27.6005 23.5115C27.6005 26.326 25.5565 28.316 22.8187 28.316C20.083 28.316 18.0391 26.4703 18.0391 23.5115C18.0391 20.8162 19.9544 18.707 22.8187 18.707Z" fill="white"/>
<path id="Vector_4" d="M36.5115 28.2992L32.1155 22.5535V28.2992H30.127V18.7246H31.8229L36.2211 24.4955L36.2167 18.7246H38.203L38.2074 28.2992H36.5115Z" fill="white"/>
<path id="Vector_5" d="M40.7578 18.7236H48.4392V20.7755H45.6571V28.3004H43.5378V20.7755H40.7578V18.7236Z" fill="white"/>
<path id="Vector_6" d="M58.718 24.18C58.718 27.1066 56.9179 28.2974 54.9317 28.2974C52.5486 28.2974 50.8926 26.889 50.8926 24.0838V18.7275H53.0119V23.6189C53.0119 25.1097 53.4486 26.2455 54.9317 26.2455C56.2152 26.2455 56.5987 25.2746 56.5987 23.7426V18.7275H58.718V24.18V24.18Z" fill="white"/>
<path id="Vector_7" d="M63.3849 20.8068V22.9274H64.152C64.9611 22.9274 65.5951 22.6251 65.5951 21.819C65.5951 21.2854 65.3335 20.8046 64.3138 20.8046C63.9946 20.8046 63.8216 20.7931 63.3849 20.8068ZM61.2656 28.2974V18.7275C61.7821 18.7275 64.152 18.7275 64.418 18.7275C66.9474 18.7275 67.8474 20.026 67.8474 21.7915C67.8474 23.5686 66.7878 24.2945 66.2846 24.5555L68.9647 28.2974H66.3954L64.1653 24.9792H63.3849V28.2974H61.2656V28.2974Z" fill="white"/>
</g>
</svg>
