<svg width="126" height="48" viewBox="0 0 126 48" fill="none" xmlns="http://www.w3.org/2000/svg">
<path d="M1.92188 10.6797C0.958333 9.75781 0.476562 8.33333 0.476562 6.40625C0.476562 4.47396 0.958333 3.04688 1.92188 2.125C2.89062 1.19792 4.34115 0.734375 6.27344 0.734375H8.01562C9.19792 0.734375 10.2422 1.04167 11.1484 1.65625C12.0599 2.27083 12.5156 3.11198 12.5156 4.17969C12.5156 4.48698 12.4245 4.70833 12.2422 4.84375C12.0599 4.97396 11.8828 5.03906 11.7109 5.03906H10.7812C10.3021 5.03906 9.92969 4.7526 9.66406 4.17969C9.27865 3.35677 8.63802 2.94531 7.74219 2.94531H6.35156C5.21094 2.94531 4.4375 3.1901 4.03125 3.67969C3.625 4.16927 3.42188 5.07552 3.42188 6.39844C3.42188 7.72135 3.625 8.63021 4.03125 9.125C4.4375 9.61458 5.21094 9.85938 6.35156 9.85938H7.90625C8.80208 9.85938 9.4401 9.44792 9.82031 8.625C10.0859 8.04688 10.4609 7.75781 10.9453 7.75781H11.875C12.1198 7.75781 12.3125 7.84896 12.4531 8.03125C12.599 8.21354 12.6719 8.41146 12.6719 8.625C12.6719 9.69271 12.2188 10.5339 11.3125 11.1484C10.4062 11.7578 9.36198 12.0625 8.17969 12.0625H6.27344C4.34115 12.0625 2.89062 11.6016 1.92188 10.6797ZM13.7534 11.2812L15.7144 3.84375C16.2456 1.81771 17.9748 0.802083 20.9019 0.796875H25.1128C25.3055 0.796875 25.4644 0.869792 25.5894 1.01562C25.7196 1.16146 25.7847 1.33073 25.7847 1.52344V11.2812C25.7847 11.4844 25.7118 11.6562 25.5659 11.7969C25.4201 11.9323 25.2456 12 25.0425 12H23.5737C23.3602 12 23.1831 11.9323 23.0425 11.7969C22.9071 11.6562 22.8394 11.4792 22.8394 11.2656V9.29688H17.2847L16.7612 11.2656C16.7092 11.4792 16.592 11.6562 16.4097 11.7969C16.2274 11.9323 16.0347 12 15.8316 12H14.2925C14.0894 12 13.9435 11.9427 13.855 11.8281C13.7665 11.7083 13.7222 11.6042 13.7222 11.5156C13.7274 11.4271 13.7378 11.349 13.7534 11.2812ZM17.8628 7.08594H22.8394V3.00781H20.6128C20.1128 3.00781 19.6753 3.15104 19.3003 3.4375C18.9305 3.71875 18.6805 4.09896 18.5503 4.57812L17.8628 7.08594ZM27.5772 11.3438L29.5616 3.84375C30.0928 1.81771 31.8194 0.802083 34.7412 0.796875H38.6475C38.8298 0.796875 38.9834 0.872396 39.1084 1.02344C39.2386 1.17448 39.3037 1.34635 39.3037 1.53906V11.2656C39.3037 11.4688 39.2334 11.6432 39.0928 11.7891C38.9574 11.9297 38.7881 12 38.585 12H37.0928C36.8897 12 36.7152 11.9297 36.5694 11.7891C36.4287 11.6432 36.3584 11.4688 36.3584 11.2656V3.00781H34.4522C33.9522 3.00781 33.5147 3.15104 33.1397 3.4375C32.7699 3.71875 32.5199 4.09896 32.3897 4.57812L30.6006 11.2656C30.5485 11.4792 30.4314 11.6562 30.2491 11.7969C30.0668 11.9323 29.8741 12 29.6709 12H28.085C27.9027 12 27.7673 11.9427 27.6787 11.8281C27.5954 11.7135 27.5537 11.6172 27.5537 11.5391C27.559 11.4609 27.5668 11.3958 27.5772 11.3438ZM52.3619 10.8438C51.2994 11.776 49.7369 12.2422 47.6744 12.2422C45.6171 12.2422 44.0546 11.776 42.9869 10.8438C41.9192 9.90625 41.3853 8.42448 41.3853 6.39844C41.3853 4.3724 41.9192 2.89323 42.9869 1.96094C44.0546 1.02865 45.6171 0.5625 47.6744 0.5625C49.7369 0.5625 51.2994 1.02865 52.3619 1.96094C53.4296 2.89323 53.9634 4.3724 53.9634 6.39844C53.9634 8.42448 53.4296 9.90625 52.3619 10.8438ZM50.2291 3.60938C49.703 2.98438 48.8515 2.67188 47.6744 2.67188C46.5025 2.67188 45.6509 2.98438 45.1197 3.60938C44.5936 4.23438 44.3306 5.16667 44.3306 6.40625C44.3306 7.64062 44.5936 8.57031 45.1197 9.19531C45.6509 9.8151 46.5025 10.125 47.6744 10.125C48.8515 10.125 49.703 9.8151 50.2291 9.19531C50.7551 8.57031 51.0181 7.64062 51.0181 6.40625C51.0181 5.16667 50.7551 4.23438 50.2291 3.60938ZM56.0528 11.2656V1.53906C56.0528 1.33594 56.1257 1.16146 56.2716 1.01562C56.4174 0.869792 56.5971 0.796875 56.8106 0.796875H58.2637C58.4669 0.796875 58.6387 0.869792 58.7794 1.01562C58.9252 1.16146 58.9981 1.33594 58.9981 1.53906V5.05469H64.3731V1.53906C64.3731 1.33594 64.446 1.16146 64.5919 1.01562C64.7377 0.869792 64.9122 0.796875 65.1153 0.796875H66.5684C66.782 0.796875 66.9591 0.869792 67.0997 1.01562C67.2455 1.16146 67.3184 1.33594 67.3184 1.53906V11.2656C67.3184 11.4688 67.2429 11.6432 67.0919 11.7891C66.946 11.9297 66.7716 12 66.5684 12H65.1153C64.9122 12 64.7377 11.9323 64.5919 11.7969C64.446 11.6562 64.3731 11.4844 64.3731 11.2812V7.26562H58.9981V11.2812C58.9981 11.4844 58.9252 11.6562 58.7794 11.7969C58.6387 11.9323 58.4669 12 58.2637 12H56.8106C56.6075 12 56.4304 11.9297 56.2794 11.7891C56.1283 11.6432 56.0528 11.4688 56.0528 11.2656ZM1.11719 29.2656V19.5391C1.11719 19.3255 1.1875 19.1484 1.32812 19.0078C1.46875 18.8672 1.64583 18.7969 1.85938 18.7969H3.23438C3.4375 18.7969 3.60938 18.8672 3.75 19.0078C3.89583 19.1484 3.96875 19.3203 3.96875 19.5234V27.3438L8.41406 19.5391C8.53385 19.3359 8.69792 19.1615 8.90625 19.0156C9.11458 18.8698 9.30729 18.7969 9.48438 18.7969H11.7891C11.9922 18.7969 12.1641 18.8698 12.3047 19.0156C12.4453 19.1615 12.5156 19.3359 12.5156 19.5391V29.2656C12.5156 29.4688 12.4427 29.6432 12.2969 29.7891C12.151 29.9297 11.9766 30 11.7734 30H10.3984C10.1953 30 10.0208 29.9297 9.875 29.7891C9.73438 29.6432 9.66406 29.4688 9.66406 29.2656V22.0156L5.58594 29.2656C5.46615 29.4688 5.29688 29.6432 5.07812 29.7891C4.85938 29.9297 4.64844 30 4.44531 30H1.85938C1.65625 30 1.48177 29.9297 1.33594 29.7891C1.1901 29.6432 1.11719 29.4688 1.11719 29.2656ZM15.2378 29.25V19.5547C15.2378 19.3411 15.3081 19.1615 15.4487 19.0156C15.5894 18.8698 15.7612 18.7969 15.9644 18.7969H19.1441C19.3472 18.7969 19.5399 18.8698 19.7222 19.0156C19.9045 19.1615 20.0269 19.3359 20.0894 19.5391L22.3941 26.2109L24.6987 19.5391C24.7612 19.3359 24.8836 19.1615 25.0659 19.0156C25.2482 18.8698 25.4409 18.7969 25.6441 18.7969H28.8237C29.0269 18.7969 29.1961 18.8698 29.3316 19.0156C29.4722 19.1615 29.5425 19.3411 29.5425 19.5547V29.25C29.5425 29.4635 29.4696 29.6432 29.3237 29.7891C29.1831 29.9297 29.0112 30 28.8081 30H27.4019C27.1987 30 27.0243 29.9297 26.8784 29.7891C26.7378 29.6432 26.6675 29.4635 26.6675 29.25V21.6172L23.9097 29.2969C23.8368 29.4896 23.7092 29.6562 23.5269 29.7969C23.3446 29.9323 23.1519 30 22.9487 30H21.8316C21.6284 30 21.4357 29.9323 21.2534 29.7969C21.0764 29.6562 20.9487 29.4896 20.8706 29.2969L18.1206 21.6172V29.25C18.1206 29.4635 18.0477 29.6432 17.9019 29.7891C17.7612 29.9297 17.5894 30 17.3862 30H15.98C15.7769 30 15.6024 29.9297 15.4566 29.7891C15.3107 29.6432 15.2378 29.4635 15.2378 29.25ZM32.2647 29.2656V19.5391C32.2647 19.3359 32.335 19.1615 32.4756 19.0156C32.6162 18.8698 32.7881 18.7969 32.9912 18.7969H43.1319C43.335 18.7969 43.5069 18.8698 43.6475 19.0156C43.7933 19.1615 43.8662 19.3359 43.8662 19.5391V29.2656C43.8662 29.4688 43.7907 29.6432 43.6397 29.7891C43.4939 29.9297 43.3194 30 43.1162 30H41.6631C41.46 30 41.2855 29.9297 41.1397 29.7891C40.9939 29.6432 40.9209 29.4688 40.9209 29.2656V21.0078H35.21V29.2656C35.21 29.4688 35.1371 29.6432 34.9912 29.7891C34.8506 29.9297 34.6787 30 34.4756 30H33.0069C32.8037 30 32.6293 29.9297 32.4834 29.7891C32.3376 29.6432 32.2647 29.4688 32.2647 29.2656ZM56.9244 28.8438C55.8619 29.776 54.2994 30.2422 52.2369 30.2422C50.1796 30.2422 48.6171 29.776 47.5494 28.8438C46.4817 27.9062 45.9478 26.4245 45.9478 24.3984C45.9478 22.3724 46.4817 20.8932 47.5494 19.9609C48.6171 19.0286 50.1796 18.5625 52.2369 18.5625C54.2994 18.5625 55.8619 19.0286 56.9244 19.9609C57.9921 20.8932 58.5259 22.3724 58.5259 24.3984C58.5259 26.4245 57.9921 27.9062 56.9244 28.8438ZM54.7916 21.6094C54.2655 20.9844 53.414 20.6719 52.2369 20.6719C51.065 20.6719 50.2134 20.9844 49.6822 21.6094C49.1561 22.2344 48.8931 23.1667 48.8931 24.4062C48.8931 25.6406 49.1561 26.5703 49.6822 27.1953C50.2134 27.8151 51.065 28.125 52.2369 28.125C53.414 28.125 54.2655 27.8151 54.7916 27.1953C55.3176 26.5703 55.5806 25.6406 55.5806 24.4062C55.5806 23.1667 55.3176 22.2344 54.7916 21.6094ZM60.6153 29.2656V19.5391C60.6153 19.3359 60.6856 19.1615 60.8262 19.0156C60.9669 18.8698 61.1387 18.7969 61.3419 18.7969H67.3028C70.4539 18.7969 72.0294 20.25 72.0294 23.1562C72.0294 26.0573 70.4539 27.5078 67.3028 27.5078H63.5606V29.2656C63.5606 29.4688 63.4877 29.6432 63.3419 29.7891C63.2012 29.9297 63.0294 30 62.8262 30H61.3575C61.1544 30 60.9799 29.9297 60.8341 29.7891C60.6882 29.6432 60.6153 29.4688 60.6153 29.2656ZM63.5606 25.2969H66.4122C67.2872 25.2969 67.9512 25.151 68.4044 24.8594C68.8575 24.5625 69.0841 23.9948 69.0841 23.1562C69.0841 22.3125 68.8575 21.7448 68.4044 21.4531C67.9512 21.1562 67.2872 21.0078 66.4122 21.0078H63.5606V25.2969ZM72.9938 20.2734V19.5391C72.9938 19.3255 73.0641 19.1484 73.2047 19.0078C73.3453 18.8672 73.5224 18.7969 73.7359 18.7969H83.65C83.8635 18.7969 84.0406 18.8672 84.1813 19.0078C84.3219 19.1484 84.3922 19.3255 84.3922 19.5391V20.2734C84.3922 20.487 84.3219 20.6641 84.1813 20.8047C84.0406 20.9401 83.8635 21.0078 83.65 21.0078H80.1656V29.2812C80.1656 29.4844 80.0927 29.6562 79.9469 29.7969C79.8063 29.9323 79.6344 30 79.4313 30H77.9547C77.7516 30 77.5771 29.9323 77.4313 29.7969C77.2906 29.6562 77.2203 29.4844 77.2203 29.2812V21.0078H73.7359C73.5224 21.0078 73.3453 20.9401 73.2047 20.8047C73.0641 20.6641 72.9938 20.487 72.9938 20.2734ZM86.1534 29.2656V19.5391C86.1534 19.3359 86.2264 19.1615 86.3722 19.0156C86.518 18.8698 86.6977 18.7969 86.9112 18.7969H88.3644C88.5675 18.7969 88.7394 18.8698 88.88 19.0156C89.0258 19.1615 89.0987 19.3359 89.0987 19.5391V23.0547H94.4737V19.5391C94.4737 19.3359 94.5467 19.1615 94.6925 19.0156C94.8383 18.8698 95.0128 18.7969 95.2159 18.7969H96.6691C96.8826 18.7969 97.0597 18.8698 97.2003 19.0156C97.3461 19.1615 97.4191 19.3359 97.4191 19.5391V29.2656C97.4191 29.4688 97.3435 29.6432 97.1925 29.7891C97.0467 29.9297 96.8722 30 96.6691 30H95.2159C95.0128 30 94.8383 29.9323 94.6925 29.7969C94.5467 29.6562 94.4737 29.4844 94.4737 29.2812V25.2656H89.0987V29.2812C89.0987 29.4844 89.0258 29.6562 88.88 29.7969C88.7394 29.9323 88.5675 30 88.3644 30H86.9112C86.7081 30 86.531 29.9297 86.38 29.7891C86.229 29.6432 86.1534 29.4688 86.1534 29.2656ZM110.485 28.8438C109.423 29.776 107.86 30.2422 105.798 30.2422C103.74 30.2422 102.178 29.776 101.11 28.8438C100.042 27.9062 99.5084 26.4245 99.5084 24.3984C99.5084 22.3724 100.042 20.8932 101.11 19.9609C102.178 19.0286 103.74 18.5625 105.798 18.5625C107.86 18.5625 109.423 19.0286 110.485 19.9609C111.553 20.8932 112.087 22.3724 112.087 24.3984C112.087 26.4245 111.553 27.9062 110.485 28.8438ZM108.352 21.6094C107.826 20.9844 106.975 20.6719 105.798 20.6719C104.626 20.6719 103.774 20.9844 103.243 21.6094C102.717 22.2344 102.454 23.1667 102.454 24.4062C102.454 25.6406 102.717 26.5703 103.243 27.1953C103.774 27.8151 104.626 28.125 105.798 28.125C106.975 28.125 107.826 27.8151 108.352 27.1953C108.878 26.5703 109.141 25.6406 109.141 24.4062C109.141 23.1667 108.878 22.2344 108.352 21.6094ZM114.176 29.2656V19.5391C114.176 19.3255 114.246 19.1484 114.387 19.0078C114.527 18.8672 114.705 18.7969 114.918 18.7969H116.293C116.496 18.7969 116.668 18.8672 116.809 19.0078C116.955 19.1484 117.027 19.3203 117.027 19.5234V27.3438L121.473 19.5391C121.593 19.3359 121.757 19.1615 121.965 19.0156C122.173 18.8698 122.366 18.7969 122.543 18.7969H124.848C125.051 18.7969 125.223 18.8698 125.363 19.0156C125.504 19.1615 125.574 19.3359 125.574 19.5391V29.2656C125.574 29.4688 125.501 29.6432 125.356 29.7891C125.21 29.9297 125.035 30 124.832 30H123.457C123.254 30 123.08 29.9297 122.934 29.7891C122.793 29.6432 122.723 29.4688 122.723 29.2656V22.0156L118.645 29.2656C118.525 29.4688 118.356 29.6432 118.137 29.7891C117.918 29.9297 117.707 30 117.504 30H114.918C114.715 30 114.541 29.9297 114.395 29.7891C114.249 29.6432 114.176 29.4688 114.176 29.2656ZM117.254 15.6016C117.254 15.3359 117.397 15.2031 117.684 15.2031H118.324C118.58 15.2031 118.759 15.3359 118.863 15.6016C119.014 15.9714 119.35 16.1562 119.871 16.1562C120.397 16.1562 120.733 15.9714 120.879 15.6016C120.988 15.3359 121.171 15.2031 121.426 15.2031H122.067C122.353 15.2031 122.496 15.3359 122.496 15.6016C122.496 16.3151 122.257 16.8802 121.777 17.2969C121.298 17.7135 120.663 17.9219 119.871 17.9219C119.085 17.9219 118.452 17.7135 117.973 17.2969C117.494 16.8802 117.254 16.3151 117.254 15.6016ZM1.11719 47.25V37.5547C1.11719 37.3411 1.1875 37.1615 1.32812 37.0156C1.46875 36.8698 1.64062 36.7969 1.84375 36.7969H5.02344C5.22656 36.7969 5.41927 36.8698 5.60156 37.0156C5.78385 37.1615 5.90625 37.3359 5.96875 37.5391L8.27344 44.2109L10.5781 37.5391C10.6406 37.3359 10.763 37.1615 10.9453 37.0156C11.1276 36.8698 11.3203 36.7969 11.5234 36.7969H14.7031C14.9062 36.7969 15.0755 36.8698 15.2109 37.0156C15.3516 37.1615 15.4219 37.3411 15.4219 37.5547V47.25C15.4219 47.4635 15.349 47.6432 15.2031 47.7891C15.0625 47.9297 14.8906 48 14.6875 48H13.2812C13.0781 48 12.9036 47.9297 12.7578 47.7891C12.6172 47.6432 12.5469 47.4635 12.5469 47.25V39.6172L9.78906 47.2969C9.71615 47.4896 9.58854 47.6562 9.40625 47.7969C9.22396 47.9323 9.03125 48 8.82812 48H7.71094C7.50781 48 7.3151 47.9323 7.13281 47.7969C6.95573 47.6562 6.82812 47.4896 6.75 47.2969L4 39.6172V47.25C4 47.4635 3.92708 47.6432 3.78125 47.7891C3.64062 47.9297 3.46875 48 3.26562 48H1.85938C1.65625 48 1.48177 47.9297 1.33594 47.7891C1.1901 47.6432 1.11719 47.4635 1.11719 47.25ZM18.1441 47.25V37.5234C18.1441 37.3203 18.217 37.1484 18.3628 37.0078C18.5086 36.8672 18.6831 36.7969 18.8862 36.7969H27.8941C28.0972 36.7969 28.2691 36.8698 28.4097 37.0156C28.5555 37.1615 28.6284 37.3359 28.6284 37.5391V38.2734C28.6284 38.4766 28.5555 38.651 28.4097 38.7969C28.2691 38.9375 28.0972 39.0078 27.8941 39.0078H21.0894V41.2812H26.9487C27.1519 41.2812 27.3237 41.3542 27.4644 41.5C27.6102 41.6406 27.6831 41.8125 27.6831 42.0156V42.75C27.6831 42.9531 27.6102 43.1276 27.4644 43.2734C27.3237 43.4141 27.1519 43.4844 26.9487 43.4844H21.0894V45.7891H27.8784C28.0764 45.7891 28.2456 45.8594 28.3862 46C28.5269 46.1406 28.5972 46.3125 28.5972 46.5156V47.2656C28.5972 47.4688 28.5243 47.6432 28.3784 47.7891C28.2326 47.9297 28.0581 48 27.855 48H18.8862C18.6831 48 18.5086 47.9297 18.3628 47.7891C18.217 47.6432 18.1441 47.4635 18.1441 47.25ZM30.5459 47.2812V37.5391C30.5459 37.3255 30.6162 37.1484 30.7569 37.0078C30.8975 36.8672 31.0746 36.7969 31.2881 36.7969H40.085C40.2881 36.7969 40.46 36.8698 40.6006 37.0156C40.7465 37.1615 40.8194 37.3359 40.8194 37.5391V38.2734C40.8194 38.4766 40.7491 38.651 40.6084 38.7969C40.473 38.9375 40.3037 39.0078 40.1006 39.0078H33.4912V40.8984H37.3506C38.6162 40.8984 39.6423 41.1979 40.4287 41.7969C41.2152 42.3906 41.6084 43.276 41.6084 44.4531C41.6084 45.625 41.2152 46.5104 40.4287 47.1094C39.6423 47.7031 38.6162 48 37.3506 48H31.2491C31.0511 48 30.8845 47.9323 30.7491 47.7969C30.6136 47.6562 30.5459 47.4844 30.5459 47.2812ZM33.4912 45.7891H37.3506C38.2256 45.7891 38.6631 45.3411 38.6631 44.4453C38.6631 43.5495 38.2256 43.1016 37.3506 43.1016H33.4912V45.7891ZM43.6822 47.25V37.5234C43.6822 37.3203 43.7551 37.1484 43.9009 37.0078C44.0468 36.8672 44.2212 36.7969 44.4244 36.7969H53.4322C53.6353 36.7969 53.8072 36.8698 53.9478 37.0156C54.0936 37.1615 54.1666 37.3359 54.1666 37.5391V38.2734C54.1666 38.4766 54.0936 38.651 53.9478 38.7969C53.8072 38.9375 53.6353 39.0078 53.4322 39.0078H46.6275V41.2812H52.4869C52.69 41.2812 52.8619 41.3542 53.0025 41.5C53.1483 41.6406 53.2212 41.8125 53.2212 42.0156V42.75C53.2212 42.9531 53.1483 43.1276 53.0025 43.2734C52.8619 43.4141 52.69 43.4844 52.4869 43.4844H46.6275V45.7891H53.4166C53.6145 45.7891 53.7837 45.8594 53.9244 46C54.065 46.1406 54.1353 46.3125 54.1353 46.5156V47.2656C54.1353 47.4688 54.0624 47.6432 53.9166 47.7891C53.7707 47.9297 53.5962 48 53.3931 48H44.4244C44.2212 48 44.0468 47.9297 43.9009 47.7891C43.7551 47.6432 43.6822 47.4635 43.6822 47.25ZM55.1622 47.3438L57.1466 39.8438C57.6778 37.8177 59.4044 36.8021 62.3262 36.7969H66.2325C66.4148 36.7969 66.5684 36.8724 66.6934 37.0234C66.8236 37.1745 66.8887 37.3464 66.8887 37.5391V47.2656C66.8887 47.4688 66.8184 47.6432 66.6778 47.7891C66.5424 47.9297 66.3731 48 66.17 48H64.6778C64.4747 48 64.3002 47.9297 64.1544 47.7891C64.0137 47.6432 63.9434 47.4688 63.9434 47.2656V39.0078H62.0372C61.5372 39.0078 61.0997 39.151 60.7247 39.4375C60.3549 39.7188 60.1049 40.099 59.9747 40.5781L58.1856 47.2656C58.1335 47.4792 58.0164 47.6562 57.8341 47.7969C57.6518 47.9323 57.4591 48 57.2559 48H55.67C55.4877 48 55.3523 47.9427 55.2637 47.8281C55.1804 47.7135 55.1387 47.6172 55.1387 47.5391C55.144 47.4609 55.1518 47.3958 55.1622 47.3438ZM69.6109 47.2656V37.5391C69.6109 37.3255 69.6813 37.1484 69.8219 37.0078C69.9625 36.8672 70.1396 36.7969 70.3531 36.7969H71.7281C71.9313 36.7969 72.1031 36.8672 72.2438 37.0078C72.3896 37.1484 72.4625 37.3203 72.4625 37.5234V45.3438L76.9078 37.5391C77.0276 37.3359 77.1917 37.1615 77.4 37.0156C77.6083 36.8698 77.801 36.7969 77.9781 36.7969H80.2828C80.4859 36.7969 80.6578 36.8698 80.7984 37.0156C80.9391 37.1615 81.0094 37.3359 81.0094 37.5391V47.2656C81.0094 47.4688 80.9365 47.6432 80.7906 47.7891C80.6448 47.9297 80.4703 48 80.2672 48H78.8922C78.6891 48 78.5146 47.9297 78.3688 47.7891C78.2281 47.6432 78.1578 47.4688 78.1578 47.2656V40.0156L74.0797 47.2656C73.9599 47.4688 73.7906 47.6432 73.5719 47.7891C73.3531 47.9297 73.1422 48 72.9391 48H70.3531C70.15 48 69.9755 47.9297 69.8297 47.7891C69.6839 47.6432 69.6109 47.4688 69.6109 47.2656Z" fill="#AD7A2D"/>
</svg>
